<mxfile host="app.diagrams.net" agent="Mozilla/5.0 (Windows NT 10.0; Win64; x64) AppleWebKit/537.36 (KHTML, like Gecko) Chrome/128.0.0.0 Safari/537.36" version="24.7.16">
  <diagram id="R2lEEEUBdFMjLlhIrx00" name="Page-1">
    <mxGraphModel dx="1028" dy="511" grid="1" gridSize="9" guides="1" tooltips="1" connect="1" arrows="1" fold="1" page="1" pageScale="1" pageWidth="1169" pageHeight="827" math="0" shadow="0" extFonts="Permanent Marker^https://fonts.googleapis.com/css?family=Permanent+Marker">
      <root>
        <mxCell id="0" />
        <mxCell id="1" parent="0" />
        <mxCell id="C-vyLk0tnHw3VtMMgP7b-2" value="OrdemDeServico" style="shape=table;startSize=30;container=1;collapsible=1;childLayout=tableLayout;fixedRows=1;rowLines=1;fontStyle=1;align=center;resizeLast=1;rounded=0;labelBackgroundColor=none;fillColor=#5D7F99;strokeColor=#000000;fontColor=#1A1A1A;strokeWidth=3;perimeterSpacing=0;shadow=1;fillStyle=auto;fontSize=15;" parent="1" vertex="1">
          <mxGeometry x="459" y="117" width="250" height="360" as="geometry" />
        </mxCell>
        <mxCell id="C-vyLk0tnHw3VtMMgP7b-3" value="" style="shape=partialRectangle;collapsible=0;dropTarget=0;pointerEvents=0;fillColor=none;points=[[0,0.5],[1,0.5]];portConstraint=eastwest;top=0;left=0;right=0;bottom=1;rounded=0;labelBackgroundColor=none;strokeColor=#D0CEE2;fontColor=#1A1A1A;" parent="C-vyLk0tnHw3VtMMgP7b-2" vertex="1">
          <mxGeometry y="30" width="250" height="30" as="geometry" />
        </mxCell>
        <mxCell id="C-vyLk0tnHw3VtMMgP7b-4" value="PK" style="shape=partialRectangle;overflow=hidden;connectable=0;fillColor=#fff2cc;top=0;left=0;bottom=0;right=0;fontStyle=1;rounded=0;labelBackgroundColor=none;strokeColor=#d6b656;" parent="C-vyLk0tnHw3VtMMgP7b-3" vertex="1">
          <mxGeometry width="30" height="30" as="geometry">
            <mxRectangle width="30" height="30" as="alternateBounds" />
          </mxGeometry>
        </mxCell>
        <mxCell id="C-vyLk0tnHw3VtMMgP7b-5" value="id_os: integer" style="shape=partialRectangle;overflow=hidden;connectable=0;fillColor=#fff2cc;top=0;left=0;bottom=0;right=0;align=left;spacingLeft=6;fontStyle=1;rounded=0;labelBackgroundColor=none;strokeColor=#d6b656;" parent="C-vyLk0tnHw3VtMMgP7b-3" vertex="1">
          <mxGeometry x="30" width="220" height="30" as="geometry">
            <mxRectangle width="220" height="30" as="alternateBounds" />
          </mxGeometry>
        </mxCell>
        <mxCell id="C-vyLk0tnHw3VtMMgP7b-6" value="" style="shape=partialRectangle;collapsible=0;dropTarget=0;pointerEvents=0;fillColor=none;points=[[0,0.5],[1,0.5]];portConstraint=eastwest;top=0;left=0;right=0;bottom=0;rounded=0;labelBackgroundColor=none;strokeColor=#D0CEE2;fontColor=#1A1A1A;" parent="C-vyLk0tnHw3VtMMgP7b-2" vertex="1">
          <mxGeometry y="60" width="250" height="30" as="geometry" />
        </mxCell>
        <mxCell id="C-vyLk0tnHw3VtMMgP7b-7" value="" style="shape=partialRectangle;overflow=hidden;connectable=0;fillColor=none;top=0;left=0;bottom=0;right=0;rounded=0;labelBackgroundColor=none;strokeColor=#D0CEE2;fontColor=#1A1A1A;" parent="C-vyLk0tnHw3VtMMgP7b-6" vertex="1">
          <mxGeometry width="30" height="30" as="geometry">
            <mxRectangle width="30" height="30" as="alternateBounds" />
          </mxGeometry>
        </mxCell>
        <mxCell id="C-vyLk0tnHw3VtMMgP7b-8" value="defeito_reclamado: varchar(250)" style="shape=partialRectangle;overflow=hidden;connectable=0;fillColor=none;top=0;left=0;bottom=0;right=0;align=left;spacingLeft=6;rounded=0;labelBackgroundColor=none;strokeColor=#D0CEE2;fontColor=#1A1A1A;" parent="C-vyLk0tnHw3VtMMgP7b-6" vertex="1">
          <mxGeometry x="30" width="220" height="30" as="geometry">
            <mxRectangle width="220" height="30" as="alternateBounds" />
          </mxGeometry>
        </mxCell>
        <mxCell id="C-vyLk0tnHw3VtMMgP7b-9" value="" style="shape=partialRectangle;collapsible=0;dropTarget=0;pointerEvents=0;fillColor=none;points=[[0,0.5],[1,0.5]];portConstraint=eastwest;top=0;left=0;right=0;bottom=0;rounded=0;labelBackgroundColor=none;strokeColor=#D0CEE2;fontColor=#1A1A1A;" parent="C-vyLk0tnHw3VtMMgP7b-2" vertex="1">
          <mxGeometry y="90" width="250" height="30" as="geometry" />
        </mxCell>
        <mxCell id="C-vyLk0tnHw3VtMMgP7b-10" value="" style="shape=partialRectangle;overflow=hidden;connectable=0;fillColor=none;top=0;left=0;bottom=0;right=0;rounded=0;labelBackgroundColor=none;strokeColor=#D0CEE2;fontColor=#1A1A1A;" parent="C-vyLk0tnHw3VtMMgP7b-9" vertex="1">
          <mxGeometry width="30" height="30" as="geometry">
            <mxRectangle width="30" height="30" as="alternateBounds" />
          </mxGeometry>
        </mxCell>
        <mxCell id="C-vyLk0tnHw3VtMMgP7b-11" value="dt_hora_entrada: datetime" style="shape=partialRectangle;overflow=hidden;connectable=0;fillColor=none;top=0;left=0;bottom=0;right=0;align=left;spacingLeft=6;rounded=0;labelBackgroundColor=none;strokeColor=#D0CEE2;fontColor=#1A1A1A;" parent="C-vyLk0tnHw3VtMMgP7b-9" vertex="1">
          <mxGeometry x="30" width="220" height="30" as="geometry">
            <mxRectangle width="220" height="30" as="alternateBounds" />
          </mxGeometry>
        </mxCell>
        <mxCell id="K5zt11yjpIeEXAA8S6xr-104" value="" style="shape=partialRectangle;collapsible=0;dropTarget=0;pointerEvents=0;fillColor=none;points=[[0,0.5],[1,0.5]];portConstraint=eastwest;top=0;left=0;right=0;bottom=0;rounded=0;labelBackgroundColor=none;strokeColor=#D0CEE2;fontColor=#1A1A1A;" vertex="1" parent="C-vyLk0tnHw3VtMMgP7b-2">
          <mxGeometry y="120" width="250" height="30" as="geometry" />
        </mxCell>
        <mxCell id="K5zt11yjpIeEXAA8S6xr-105" value="" style="shape=partialRectangle;overflow=hidden;connectable=0;fillColor=none;top=0;left=0;bottom=0;right=0;rounded=0;labelBackgroundColor=none;strokeColor=#D0CEE2;fontColor=#1A1A1A;" vertex="1" parent="K5zt11yjpIeEXAA8S6xr-104">
          <mxGeometry width="30" height="30" as="geometry">
            <mxRectangle width="30" height="30" as="alternateBounds" />
          </mxGeometry>
        </mxCell>
        <mxCell id="K5zt11yjpIeEXAA8S6xr-106" value="dt_hora_saida: datetime" style="shape=partialRectangle;overflow=hidden;connectable=0;fillColor=none;top=0;left=0;bottom=0;right=0;align=left;spacingLeft=6;rounded=0;labelBackgroundColor=none;strokeColor=#D0CEE2;fontColor=#1A1A1A;" vertex="1" parent="K5zt11yjpIeEXAA8S6xr-104">
          <mxGeometry x="30" width="220" height="30" as="geometry">
            <mxRectangle width="220" height="30" as="alternateBounds" />
          </mxGeometry>
        </mxCell>
        <mxCell id="K5zt11yjpIeEXAA8S6xr-109" value="" style="shape=partialRectangle;collapsible=0;dropTarget=0;pointerEvents=0;fillColor=none;points=[[0,0.5],[1,0.5]];portConstraint=eastwest;top=0;left=0;right=0;bottom=0;rounded=0;labelBackgroundColor=none;strokeColor=#D0CEE2;fontColor=#1A1A1A;" vertex="1" parent="C-vyLk0tnHw3VtMMgP7b-2">
          <mxGeometry y="150" width="250" height="30" as="geometry" />
        </mxCell>
        <mxCell id="K5zt11yjpIeEXAA8S6xr-110" value="" style="shape=partialRectangle;overflow=hidden;connectable=0;fillColor=none;top=0;left=0;bottom=0;right=0;rounded=0;labelBackgroundColor=none;strokeColor=#D0CEE2;fontColor=#1A1A1A;" vertex="1" parent="K5zt11yjpIeEXAA8S6xr-109">
          <mxGeometry width="30" height="30" as="geometry">
            <mxRectangle width="30" height="30" as="alternateBounds" />
          </mxGeometry>
        </mxCell>
        <mxCell id="K5zt11yjpIeEXAA8S6xr-111" value="status_servico: varchar(30)" style="shape=partialRectangle;overflow=hidden;connectable=0;fillColor=none;top=0;left=0;bottom=0;right=0;align=left;spacingLeft=6;rounded=0;labelBackgroundColor=none;strokeColor=#D0CEE2;fontColor=#1A1A1A;" vertex="1" parent="K5zt11yjpIeEXAA8S6xr-109">
          <mxGeometry x="30" width="220" height="30" as="geometry">
            <mxRectangle width="220" height="30" as="alternateBounds" />
          </mxGeometry>
        </mxCell>
        <mxCell id="K5zt11yjpIeEXAA8S6xr-112" value="" style="shape=partialRectangle;collapsible=0;dropTarget=0;pointerEvents=0;fillColor=none;points=[[0,0.5],[1,0.5]];portConstraint=eastwest;top=0;left=0;right=0;bottom=0;rounded=0;labelBackgroundColor=none;strokeColor=#D0CEE2;fontColor=#1A1A1A;" vertex="1" parent="C-vyLk0tnHw3VtMMgP7b-2">
          <mxGeometry y="180" width="250" height="30" as="geometry" />
        </mxCell>
        <mxCell id="K5zt11yjpIeEXAA8S6xr-113" value="" style="shape=partialRectangle;overflow=hidden;connectable=0;fillColor=none;top=0;left=0;bottom=0;right=0;rounded=0;labelBackgroundColor=none;strokeColor=#D0CEE2;fontColor=#1A1A1A;" vertex="1" parent="K5zt11yjpIeEXAA8S6xr-112">
          <mxGeometry width="30" height="30" as="geometry">
            <mxRectangle width="30" height="30" as="alternateBounds" />
          </mxGeometry>
        </mxCell>
        <mxCell id="K5zt11yjpIeEXAA8S6xr-114" value="veiculo_em_manutencao: varchar(30)" style="shape=partialRectangle;overflow=hidden;connectable=0;fillColor=none;top=0;left=0;bottom=0;right=0;align=left;spacingLeft=6;rounded=0;labelBackgroundColor=none;strokeColor=#D0CEE2;fontColor=#1A1A1A;" vertex="1" parent="K5zt11yjpIeEXAA8S6xr-112">
          <mxGeometry x="30" width="220" height="30" as="geometry">
            <mxRectangle width="220" height="30" as="alternateBounds" />
          </mxGeometry>
        </mxCell>
        <mxCell id="K5zt11yjpIeEXAA8S6xr-231" value="" style="shape=partialRectangle;collapsible=0;dropTarget=0;pointerEvents=0;fillColor=none;points=[[0,0.5],[1,0.5]];portConstraint=eastwest;top=0;left=0;right=0;bottom=0;rounded=0;labelBackgroundColor=none;strokeColor=#D0CEE2;fontColor=#1A1A1A;" vertex="1" parent="C-vyLk0tnHw3VtMMgP7b-2">
          <mxGeometry y="210" width="250" height="30" as="geometry" />
        </mxCell>
        <mxCell id="K5zt11yjpIeEXAA8S6xr-232" value="" style="shape=partialRectangle;overflow=hidden;connectable=0;fillColor=none;top=0;left=0;bottom=0;right=0;rounded=0;labelBackgroundColor=none;strokeColor=#D0CEE2;fontColor=#1A1A1A;" vertex="1" parent="K5zt11yjpIeEXAA8S6xr-231">
          <mxGeometry width="30" height="30" as="geometry">
            <mxRectangle width="30" height="30" as="alternateBounds" />
          </mxGeometry>
        </mxCell>
        <mxCell id="K5zt11yjpIeEXAA8S6xr-233" value="placa_veiculo: varchar(7)" style="shape=partialRectangle;overflow=hidden;connectable=0;fillColor=none;top=0;left=0;bottom=0;right=0;align=left;spacingLeft=6;rounded=0;labelBackgroundColor=none;strokeColor=#D0CEE2;fontColor=#1A1A1A;" vertex="1" parent="K5zt11yjpIeEXAA8S6xr-231">
          <mxGeometry x="30" width="220" height="30" as="geometry">
            <mxRectangle width="220" height="30" as="alternateBounds" />
          </mxGeometry>
        </mxCell>
        <mxCell id="K5zt11yjpIeEXAA8S6xr-115" value="" style="shape=partialRectangle;collapsible=0;dropTarget=0;pointerEvents=0;fillColor=none;points=[[0,0.5],[1,0.5]];portConstraint=eastwest;top=0;left=0;right=0;bottom=0;rounded=0;labelBackgroundColor=none;strokeColor=#D0CEE2;fontColor=#1A1A1A;" vertex="1" parent="C-vyLk0tnHw3VtMMgP7b-2">
          <mxGeometry y="240" width="250" height="30" as="geometry" />
        </mxCell>
        <mxCell id="K5zt11yjpIeEXAA8S6xr-116" value="" style="shape=partialRectangle;overflow=hidden;connectable=0;fillColor=none;top=0;left=0;bottom=0;right=0;rounded=0;labelBackgroundColor=none;strokeColor=#D0CEE2;fontColor=#1A1A1A;" vertex="1" parent="K5zt11yjpIeEXAA8S6xr-115">
          <mxGeometry width="30" height="30" as="geometry">
            <mxRectangle width="30" height="30" as="alternateBounds" />
          </mxGeometry>
        </mxCell>
        <mxCell id="K5zt11yjpIeEXAA8S6xr-117" value="placa_veiculo: varchar(7)" style="shape=partialRectangle;overflow=hidden;connectable=0;fillColor=none;top=0;left=0;bottom=0;right=0;align=left;spacingLeft=6;rounded=0;labelBackgroundColor=none;strokeColor=#D0CEE2;fontColor=#1A1A1A;" vertex="1" parent="K5zt11yjpIeEXAA8S6xr-115">
          <mxGeometry x="30" width="220" height="30" as="geometry">
            <mxRectangle width="220" height="30" as="alternateBounds" />
          </mxGeometry>
        </mxCell>
        <mxCell id="K5zt11yjpIeEXAA8S6xr-127" value="" style="shape=partialRectangle;collapsible=0;dropTarget=0;pointerEvents=0;fillColor=none;points=[[0,0.5],[1,0.5]];portConstraint=eastwest;top=0;left=0;right=0;bottom=0;rounded=0;labelBackgroundColor=none;strokeColor=#D0CEE2;fontColor=#1A1A1A;" vertex="1" parent="C-vyLk0tnHw3VtMMgP7b-2">
          <mxGeometry y="270" width="250" height="30" as="geometry" />
        </mxCell>
        <mxCell id="K5zt11yjpIeEXAA8S6xr-128" value="" style="shape=partialRectangle;overflow=hidden;connectable=0;fillColor=none;top=0;left=0;bottom=0;right=0;rounded=0;labelBackgroundColor=none;strokeColor=#D0CEE2;fontColor=#1A1A1A;" vertex="1" parent="K5zt11yjpIeEXAA8S6xr-127">
          <mxGeometry width="30" height="30" as="geometry">
            <mxRectangle width="30" height="30" as="alternateBounds" />
          </mxGeometry>
        </mxCell>
        <mxCell id="K5zt11yjpIeEXAA8S6xr-129" value="total_os: decimal(15,2)" style="shape=partialRectangle;overflow=hidden;connectable=0;fillColor=none;top=0;left=0;bottom=0;right=0;align=left;spacingLeft=6;rounded=0;labelBackgroundColor=none;strokeColor=#D0CEE2;fontColor=#1A1A1A;" vertex="1" parent="K5zt11yjpIeEXAA8S6xr-127">
          <mxGeometry x="30" width="220" height="30" as="geometry">
            <mxRectangle width="220" height="30" as="alternateBounds" />
          </mxGeometry>
        </mxCell>
        <mxCell id="K5zt11yjpIeEXAA8S6xr-121" value="" style="shape=partialRectangle;collapsible=0;dropTarget=0;pointerEvents=0;fillColor=none;points=[[0,0.5],[1,0.5]];portConstraint=eastwest;top=0;left=0;right=0;bottom=0;rounded=0;labelBackgroundColor=none;strokeColor=#D0CEE2;fontColor=#1A1A1A;" vertex="1" parent="C-vyLk0tnHw3VtMMgP7b-2">
          <mxGeometry y="300" width="250" height="30" as="geometry" />
        </mxCell>
        <mxCell id="K5zt11yjpIeEXAA8S6xr-122" value="FK" style="shape=partialRectangle;overflow=hidden;connectable=0;top=0;left=0;bottom=0;right=0;rounded=0;labelBackgroundColor=none;fontStyle=1;fillColor=#f8cecc;strokeColor=#b85450;" vertex="1" parent="K5zt11yjpIeEXAA8S6xr-121">
          <mxGeometry width="30" height="30" as="geometry">
            <mxRectangle width="30" height="30" as="alternateBounds" />
          </mxGeometry>
        </mxCell>
        <mxCell id="K5zt11yjpIeEXAA8S6xr-123" value="id_cliente: integer" style="shape=partialRectangle;overflow=hidden;connectable=0;top=0;left=0;bottom=0;right=0;align=left;spacingLeft=6;rounded=0;labelBackgroundColor=none;fontStyle=1;fillColor=#f8cecc;strokeColor=#b85450;" vertex="1" parent="K5zt11yjpIeEXAA8S6xr-121">
          <mxGeometry x="30" width="220" height="30" as="geometry">
            <mxRectangle width="220" height="30" as="alternateBounds" />
          </mxGeometry>
        </mxCell>
        <mxCell id="K5zt11yjpIeEXAA8S6xr-221" value="" style="shape=partialRectangle;collapsible=0;dropTarget=0;pointerEvents=0;fillColor=none;points=[[0,0.5],[1,0.5]];portConstraint=eastwest;top=0;left=0;right=0;bottom=0;rounded=0;labelBackgroundColor=none;strokeColor=#D0CEE2;fontColor=#1A1A1A;" vertex="1" parent="C-vyLk0tnHw3VtMMgP7b-2">
          <mxGeometry y="330" width="250" height="30" as="geometry" />
        </mxCell>
        <mxCell id="K5zt11yjpIeEXAA8S6xr-222" value="FK" style="shape=partialRectangle;overflow=hidden;connectable=0;top=0;left=0;bottom=0;right=0;rounded=0;labelBackgroundColor=none;fontStyle=1;fillColor=#f8cecc;strokeColor=#b85450;" vertex="1" parent="K5zt11yjpIeEXAA8S6xr-221">
          <mxGeometry width="30" height="30" as="geometry">
            <mxRectangle width="30" height="30" as="alternateBounds" />
          </mxGeometry>
        </mxCell>
        <mxCell id="K5zt11yjpIeEXAA8S6xr-223" value="id_servico: integer" style="shape=partialRectangle;overflow=hidden;connectable=0;top=0;left=0;bottom=0;right=0;align=left;spacingLeft=6;rounded=0;labelBackgroundColor=none;fontStyle=1;fillColor=#f8cecc;strokeColor=#b85450;" vertex="1" parent="K5zt11yjpIeEXAA8S6xr-221">
          <mxGeometry x="30" width="220" height="30" as="geometry">
            <mxRectangle width="220" height="30" as="alternateBounds" />
          </mxGeometry>
        </mxCell>
        <mxCell id="C-vyLk0tnHw3VtMMgP7b-23" value="cliente" style="shape=table;startSize=30;container=1;collapsible=1;childLayout=tableLayout;fixedRows=1;rowLines=1;fontStyle=1;align=center;resizeLast=1;rounded=0;labelBackgroundColor=none;fillColor=#5D7F99;strokeColor=#000000;fontColor=#1A1A1A;strokeWidth=3;perimeterSpacing=0;shadow=1;fillStyle=auto;fontSize=15;" parent="1" vertex="1">
          <mxGeometry x="63" y="81" width="250" height="480" as="geometry">
            <mxRectangle x="119" y="121" width="81" height="30" as="alternateBounds" />
          </mxGeometry>
        </mxCell>
        <mxCell id="C-vyLk0tnHw3VtMMgP7b-24" value="" style="shape=partialRectangle;collapsible=0;dropTarget=0;pointerEvents=0;fillColor=none;points=[[0,0.5],[1,0.5]];portConstraint=eastwest;top=0;left=0;right=0;bottom=1;rounded=0;labelBackgroundColor=none;strokeColor=#D0CEE2;fontColor=#1A1A1A;" parent="C-vyLk0tnHw3VtMMgP7b-23" vertex="1">
          <mxGeometry y="30" width="250" height="30" as="geometry" />
        </mxCell>
        <mxCell id="C-vyLk0tnHw3VtMMgP7b-25" value="PK" style="shape=partialRectangle;overflow=hidden;connectable=0;fillColor=#fff2cc;top=0;left=0;bottom=0;right=0;fontStyle=1;rounded=0;labelBackgroundColor=none;strokeColor=#d6b656;fillStyle=auto;" parent="C-vyLk0tnHw3VtMMgP7b-24" vertex="1">
          <mxGeometry width="30" height="30" as="geometry">
            <mxRectangle width="30" height="30" as="alternateBounds" />
          </mxGeometry>
        </mxCell>
        <mxCell id="C-vyLk0tnHw3VtMMgP7b-26" value="id_cliente: integer" style="shape=partialRectangle;overflow=hidden;connectable=0;fillColor=#fff2cc;top=0;left=0;bottom=0;right=0;align=left;spacingLeft=6;fontStyle=1;rounded=0;labelBackgroundColor=none;strokeColor=#d6b656;horizontal=1;verticalAlign=middle;fillStyle=auto;" parent="C-vyLk0tnHw3VtMMgP7b-24" vertex="1">
          <mxGeometry x="30" width="220" height="30" as="geometry">
            <mxRectangle width="220" height="30" as="alternateBounds" />
          </mxGeometry>
        </mxCell>
        <mxCell id="K5zt11yjpIeEXAA8S6xr-63" value="" style="shape=partialRectangle;collapsible=0;dropTarget=0;pointerEvents=0;fillColor=none;points=[[0,0.5],[1,0.5]];portConstraint=eastwest;top=0;left=0;right=0;bottom=0;rounded=0;labelBackgroundColor=none;strokeColor=#D0CEE2;fontColor=#1A1A1A;" vertex="1" parent="C-vyLk0tnHw3VtMMgP7b-23">
          <mxGeometry y="60" width="250" height="30" as="geometry" />
        </mxCell>
        <mxCell id="K5zt11yjpIeEXAA8S6xr-64" value="" style="shape=partialRectangle;overflow=hidden;connectable=0;fillColor=none;top=0;left=0;bottom=0;right=0;rounded=0;labelBackgroundColor=none;strokeColor=#D0CEE2;fontColor=#1A1A1A;" vertex="1" parent="K5zt11yjpIeEXAA8S6xr-63">
          <mxGeometry width="30" height="30" as="geometry">
            <mxRectangle width="30" height="30" as="alternateBounds" />
          </mxGeometry>
        </mxCell>
        <mxCell id="K5zt11yjpIeEXAA8S6xr-65" value="nome: varchar(50)                 " style="shape=partialRectangle;overflow=hidden;connectable=0;fillColor=none;top=0;left=0;bottom=0;right=0;align=left;spacingLeft=6;rounded=0;labelBackgroundColor=none;strokeColor=#D0CEE2;fontColor=#1A1A1A;fontStyle=0;fontSize=12;spacingTop=0;textShadow=0;labelBorderColor=none;" vertex="1" parent="K5zt11yjpIeEXAA8S6xr-63">
          <mxGeometry x="30" width="220" height="30" as="geometry">
            <mxRectangle width="220" height="30" as="alternateBounds" />
          </mxGeometry>
        </mxCell>
        <mxCell id="K5zt11yjpIeEXAA8S6xr-66" value="" style="shape=partialRectangle;collapsible=0;dropTarget=0;pointerEvents=0;fillColor=none;points=[[0,0.5],[1,0.5]];portConstraint=eastwest;top=0;left=0;right=0;bottom=0;rounded=0;labelBackgroundColor=none;strokeColor=#D0CEE2;fontColor=#1A1A1A;" vertex="1" parent="C-vyLk0tnHw3VtMMgP7b-23">
          <mxGeometry y="90" width="250" height="30" as="geometry" />
        </mxCell>
        <mxCell id="K5zt11yjpIeEXAA8S6xr-67" value="" style="shape=partialRectangle;overflow=hidden;connectable=0;fillColor=none;top=0;left=0;bottom=0;right=0;rounded=0;labelBackgroundColor=none;strokeColor=#D0CEE2;fontColor=#1A1A1A;" vertex="1" parent="K5zt11yjpIeEXAA8S6xr-66">
          <mxGeometry width="30" height="30" as="geometry">
            <mxRectangle width="30" height="30" as="alternateBounds" />
          </mxGeometry>
        </mxCell>
        <mxCell id="K5zt11yjpIeEXAA8S6xr-68" value="cpf: varchar(14)" style="shape=partialRectangle;overflow=hidden;connectable=0;fillColor=none;top=0;left=0;bottom=0;right=0;align=left;spacingLeft=6;rounded=0;labelBackgroundColor=none;strokeColor=#D0CEE2;fontColor=#1A1A1A;fontStyle=0;fontSize=12;" vertex="1" parent="K5zt11yjpIeEXAA8S6xr-66">
          <mxGeometry x="30" width="220" height="30" as="geometry">
            <mxRectangle width="220" height="30" as="alternateBounds" />
          </mxGeometry>
        </mxCell>
        <mxCell id="K5zt11yjpIeEXAA8S6xr-69" value="" style="shape=partialRectangle;collapsible=0;dropTarget=0;pointerEvents=0;fillColor=none;points=[[0,0.5],[1,0.5]];portConstraint=eastwest;top=0;left=0;right=0;bottom=0;rounded=0;labelBackgroundColor=none;strokeColor=#D0CEE2;fontColor=#1A1A1A;" vertex="1" parent="C-vyLk0tnHw3VtMMgP7b-23">
          <mxGeometry y="120" width="250" height="30" as="geometry" />
        </mxCell>
        <mxCell id="K5zt11yjpIeEXAA8S6xr-70" value="" style="shape=partialRectangle;overflow=hidden;connectable=0;fillColor=none;top=0;left=0;bottom=0;right=0;rounded=0;labelBackgroundColor=none;strokeColor=#D0CEE2;fontColor=#1A1A1A;" vertex="1" parent="K5zt11yjpIeEXAA8S6xr-69">
          <mxGeometry width="30" height="30" as="geometry">
            <mxRectangle width="30" height="30" as="alternateBounds" />
          </mxGeometry>
        </mxCell>
        <mxCell id="K5zt11yjpIeEXAA8S6xr-71" value="rg: varchar(10)" style="shape=partialRectangle;overflow=hidden;connectable=0;fillColor=none;top=0;left=0;bottom=0;right=0;align=left;spacingLeft=6;rounded=0;labelBackgroundColor=none;strokeColor=#D0CEE2;fontColor=#1A1A1A;fontStyle=0;fontSize=12;" vertex="1" parent="K5zt11yjpIeEXAA8S6xr-69">
          <mxGeometry x="30" width="220" height="30" as="geometry">
            <mxRectangle width="220" height="30" as="alternateBounds" />
          </mxGeometry>
        </mxCell>
        <mxCell id="K5zt11yjpIeEXAA8S6xr-72" value="" style="shape=partialRectangle;collapsible=0;dropTarget=0;pointerEvents=0;fillColor=none;points=[[0,0.5],[1,0.5]];portConstraint=eastwest;top=0;left=0;right=0;bottom=0;rounded=0;labelBackgroundColor=none;strokeColor=#D0CEE2;fontColor=#1A1A1A;" vertex="1" parent="C-vyLk0tnHw3VtMMgP7b-23">
          <mxGeometry y="150" width="250" height="30" as="geometry" />
        </mxCell>
        <mxCell id="K5zt11yjpIeEXAA8S6xr-73" value="" style="shape=partialRectangle;overflow=hidden;connectable=0;fillColor=none;top=0;left=0;bottom=0;right=0;rounded=0;labelBackgroundColor=none;strokeColor=#D0CEE2;fontColor=#1A1A1A;" vertex="1" parent="K5zt11yjpIeEXAA8S6xr-72">
          <mxGeometry width="30" height="30" as="geometry">
            <mxRectangle width="30" height="30" as="alternateBounds" />
          </mxGeometry>
        </mxCell>
        <mxCell id="K5zt11yjpIeEXAA8S6xr-74" value="cnpj: varchar(18)" style="shape=partialRectangle;overflow=hidden;connectable=0;fillColor=none;top=0;left=0;bottom=0;right=0;align=left;spacingLeft=6;rounded=0;labelBackgroundColor=none;strokeColor=#D0CEE2;fontColor=#1A1A1A;fontStyle=0;fontSize=12;" vertex="1" parent="K5zt11yjpIeEXAA8S6xr-72">
          <mxGeometry x="30" width="220" height="30" as="geometry">
            <mxRectangle width="220" height="30" as="alternateBounds" />
          </mxGeometry>
        </mxCell>
        <mxCell id="K5zt11yjpIeEXAA8S6xr-75" value="" style="shape=partialRectangle;collapsible=0;dropTarget=0;pointerEvents=0;fillColor=none;points=[[0,0.5],[1,0.5]];portConstraint=eastwest;top=0;left=0;right=0;bottom=0;rounded=0;labelBackgroundColor=none;strokeColor=#D0CEE2;fontColor=#1A1A1A;" vertex="1" parent="C-vyLk0tnHw3VtMMgP7b-23">
          <mxGeometry y="180" width="250" height="30" as="geometry" />
        </mxCell>
        <mxCell id="K5zt11yjpIeEXAA8S6xr-76" value="" style="shape=partialRectangle;overflow=hidden;connectable=0;fillColor=none;top=0;left=0;bottom=0;right=0;rounded=0;labelBackgroundColor=none;strokeColor=#D0CEE2;fontColor=#1A1A1A;" vertex="1" parent="K5zt11yjpIeEXAA8S6xr-75">
          <mxGeometry width="30" height="30" as="geometry">
            <mxRectangle width="30" height="30" as="alternateBounds" />
          </mxGeometry>
        </mxCell>
        <mxCell id="K5zt11yjpIeEXAA8S6xr-77" value="razao_social: varchar(100)" style="shape=partialRectangle;overflow=hidden;connectable=0;fillColor=none;top=0;left=0;bottom=0;right=0;align=left;spacingLeft=6;rounded=0;labelBackgroundColor=none;strokeColor=#D0CEE2;fontColor=#1A1A1A;fontStyle=0;fontSize=12;" vertex="1" parent="K5zt11yjpIeEXAA8S6xr-75">
          <mxGeometry x="30" width="220" height="30" as="geometry">
            <mxRectangle width="220" height="30" as="alternateBounds" />
          </mxGeometry>
        </mxCell>
        <mxCell id="K5zt11yjpIeEXAA8S6xr-78" value="" style="shape=partialRectangle;collapsible=0;dropTarget=0;pointerEvents=0;fillColor=none;points=[[0,0.5],[1,0.5]];portConstraint=eastwest;top=0;left=0;right=0;bottom=0;rounded=0;labelBackgroundColor=none;strokeColor=#D0CEE2;fontColor=#1A1A1A;" vertex="1" parent="C-vyLk0tnHw3VtMMgP7b-23">
          <mxGeometry y="210" width="250" height="30" as="geometry" />
        </mxCell>
        <mxCell id="K5zt11yjpIeEXAA8S6xr-79" value="" style="shape=partialRectangle;overflow=hidden;connectable=0;fillColor=none;top=0;left=0;bottom=0;right=0;rounded=0;labelBackgroundColor=none;strokeColor=#D0CEE2;fontColor=#1A1A1A;" vertex="1" parent="K5zt11yjpIeEXAA8S6xr-78">
          <mxGeometry width="30" height="30" as="geometry">
            <mxRectangle width="30" height="30" as="alternateBounds" />
          </mxGeometry>
        </mxCell>
        <mxCell id="K5zt11yjpIeEXAA8S6xr-80" value="email: varchar(30)" style="shape=partialRectangle;overflow=hidden;connectable=0;fillColor=none;top=0;left=0;bottom=0;right=0;align=left;spacingLeft=6;rounded=0;labelBackgroundColor=none;strokeColor=#D0CEE2;fontColor=#1A1A1A;fontStyle=0;fontSize=12;" vertex="1" parent="K5zt11yjpIeEXAA8S6xr-78">
          <mxGeometry x="30" width="220" height="30" as="geometry">
            <mxRectangle width="220" height="30" as="alternateBounds" />
          </mxGeometry>
        </mxCell>
        <mxCell id="K5zt11yjpIeEXAA8S6xr-81" value="" style="shape=partialRectangle;collapsible=0;dropTarget=0;pointerEvents=0;fillColor=none;points=[[0,0.5],[1,0.5]];portConstraint=eastwest;top=0;left=0;right=0;bottom=0;rounded=0;labelBackgroundColor=none;strokeColor=#D0CEE2;fontColor=#1A1A1A;" vertex="1" parent="C-vyLk0tnHw3VtMMgP7b-23">
          <mxGeometry y="240" width="250" height="30" as="geometry" />
        </mxCell>
        <mxCell id="K5zt11yjpIeEXAA8S6xr-82" value="" style="shape=partialRectangle;overflow=hidden;connectable=0;fillColor=none;top=0;left=0;bottom=0;right=0;rounded=0;labelBackgroundColor=none;strokeColor=#D0CEE2;fontColor=#1A1A1A;" vertex="1" parent="K5zt11yjpIeEXAA8S6xr-81">
          <mxGeometry width="30" height="30" as="geometry">
            <mxRectangle width="30" height="30" as="alternateBounds" />
          </mxGeometry>
        </mxCell>
        <mxCell id="K5zt11yjpIeEXAA8S6xr-83" value="endereco: varchar(50)" style="shape=partialRectangle;overflow=hidden;connectable=0;fillColor=none;top=0;left=0;bottom=0;right=0;align=left;spacingLeft=6;rounded=0;labelBackgroundColor=none;strokeColor=#D0CEE2;fontColor=#1A1A1A;fontStyle=0" vertex="1" parent="K5zt11yjpIeEXAA8S6xr-81">
          <mxGeometry x="30" width="220" height="30" as="geometry">
            <mxRectangle width="220" height="30" as="alternateBounds" />
          </mxGeometry>
        </mxCell>
        <mxCell id="K5zt11yjpIeEXAA8S6xr-84" value="" style="shape=partialRectangle;collapsible=0;dropTarget=0;pointerEvents=0;fillColor=none;points=[[0,0.5],[1,0.5]];portConstraint=eastwest;top=0;left=0;right=0;bottom=0;rounded=0;labelBackgroundColor=none;strokeColor=#D0CEE2;fontColor=#1A1A1A;" vertex="1" parent="C-vyLk0tnHw3VtMMgP7b-23">
          <mxGeometry y="270" width="250" height="30" as="geometry" />
        </mxCell>
        <mxCell id="K5zt11yjpIeEXAA8S6xr-85" value="" style="shape=partialRectangle;overflow=hidden;connectable=0;fillColor=none;top=0;left=0;bottom=0;right=0;rounded=0;labelBackgroundColor=none;strokeColor=#D0CEE2;fontColor=#1A1A1A;" vertex="1" parent="K5zt11yjpIeEXAA8S6xr-84">
          <mxGeometry width="30" height="30" as="geometry">
            <mxRectangle width="30" height="30" as="alternateBounds" />
          </mxGeometry>
        </mxCell>
        <mxCell id="K5zt11yjpIeEXAA8S6xr-86" value="numero: varchar(10)" style="shape=partialRectangle;overflow=hidden;connectable=0;fillColor=none;top=0;left=0;bottom=0;right=0;align=left;spacingLeft=6;rounded=0;labelBackgroundColor=none;strokeColor=#D0CEE2;fontColor=#1A1A1A;fontStyle=0" vertex="1" parent="K5zt11yjpIeEXAA8S6xr-84">
          <mxGeometry x="30" width="220" height="30" as="geometry">
            <mxRectangle width="220" height="30" as="alternateBounds" />
          </mxGeometry>
        </mxCell>
        <mxCell id="K5zt11yjpIeEXAA8S6xr-87" value="" style="shape=partialRectangle;collapsible=0;dropTarget=0;pointerEvents=0;fillColor=none;points=[[0,0.5],[1,0.5]];portConstraint=eastwest;top=0;left=0;right=0;bottom=0;rounded=0;labelBackgroundColor=none;strokeColor=#D0CEE2;fontColor=#1A1A1A;" vertex="1" parent="C-vyLk0tnHw3VtMMgP7b-23">
          <mxGeometry y="300" width="250" height="30" as="geometry" />
        </mxCell>
        <mxCell id="K5zt11yjpIeEXAA8S6xr-88" value="" style="shape=partialRectangle;overflow=hidden;connectable=0;fillColor=none;top=0;left=0;bottom=0;right=0;rounded=0;labelBackgroundColor=none;strokeColor=#D0CEE2;fontColor=#1A1A1A;" vertex="1" parent="K5zt11yjpIeEXAA8S6xr-87">
          <mxGeometry width="30" height="30" as="geometry">
            <mxRectangle width="30" height="30" as="alternateBounds" />
          </mxGeometry>
        </mxCell>
        <mxCell id="K5zt11yjpIeEXAA8S6xr-89" value="bairro: varchar(20)" style="shape=partialRectangle;overflow=hidden;connectable=0;fillColor=none;top=0;left=0;bottom=0;right=0;align=left;spacingLeft=6;rounded=0;labelBackgroundColor=none;strokeColor=#D0CEE2;fontColor=#1A1A1A;fontStyle=0" vertex="1" parent="K5zt11yjpIeEXAA8S6xr-87">
          <mxGeometry x="30" width="220" height="30" as="geometry">
            <mxRectangle width="220" height="30" as="alternateBounds" />
          </mxGeometry>
        </mxCell>
        <mxCell id="K5zt11yjpIeEXAA8S6xr-90" value="" style="shape=partialRectangle;collapsible=0;dropTarget=0;pointerEvents=0;fillColor=none;points=[[0,0.5],[1,0.5]];portConstraint=eastwest;top=0;left=0;right=0;bottom=0;rounded=0;labelBackgroundColor=none;strokeColor=#D0CEE2;fontColor=#1A1A1A;" vertex="1" parent="C-vyLk0tnHw3VtMMgP7b-23">
          <mxGeometry y="330" width="250" height="30" as="geometry" />
        </mxCell>
        <mxCell id="K5zt11yjpIeEXAA8S6xr-91" value="" style="shape=partialRectangle;overflow=hidden;connectable=0;fillColor=none;top=0;left=0;bottom=0;right=0;rounded=0;labelBackgroundColor=none;strokeColor=#D0CEE2;fontColor=#1A1A1A;" vertex="1" parent="K5zt11yjpIeEXAA8S6xr-90">
          <mxGeometry width="30" height="30" as="geometry">
            <mxRectangle width="30" height="30" as="alternateBounds" />
          </mxGeometry>
        </mxCell>
        <mxCell id="K5zt11yjpIeEXAA8S6xr-92" value="cidade: varchar(40)" style="shape=partialRectangle;overflow=hidden;connectable=0;fillColor=none;top=0;left=0;bottom=0;right=0;align=left;spacingLeft=6;rounded=0;labelBackgroundColor=none;strokeColor=#D0CEE2;fontColor=#1A1A1A;fontStyle=0" vertex="1" parent="K5zt11yjpIeEXAA8S6xr-90">
          <mxGeometry x="30" width="220" height="30" as="geometry">
            <mxRectangle width="220" height="30" as="alternateBounds" />
          </mxGeometry>
        </mxCell>
        <mxCell id="K5zt11yjpIeEXAA8S6xr-93" value="" style="shape=partialRectangle;collapsible=0;dropTarget=0;pointerEvents=0;fillColor=none;points=[[0,0.5],[1,0.5]];portConstraint=eastwest;top=0;left=0;right=0;bottom=0;rounded=0;labelBackgroundColor=none;strokeColor=#D0CEE2;fontColor=#1A1A1A;" vertex="1" parent="C-vyLk0tnHw3VtMMgP7b-23">
          <mxGeometry y="360" width="250" height="30" as="geometry" />
        </mxCell>
        <mxCell id="K5zt11yjpIeEXAA8S6xr-94" value="" style="shape=partialRectangle;overflow=hidden;connectable=0;fillColor=none;top=0;left=0;bottom=0;right=0;rounded=0;labelBackgroundColor=none;strokeColor=#D0CEE2;fontColor=#1A1A1A;" vertex="1" parent="K5zt11yjpIeEXAA8S6xr-93">
          <mxGeometry width="30" height="30" as="geometry">
            <mxRectangle width="30" height="30" as="alternateBounds" />
          </mxGeometry>
        </mxCell>
        <mxCell id="K5zt11yjpIeEXAA8S6xr-95" value="estado: varchar(2)" style="shape=partialRectangle;overflow=hidden;connectable=0;fillColor=none;top=0;left=0;bottom=0;right=0;align=left;spacingLeft=6;rounded=0;labelBackgroundColor=none;strokeColor=#D0CEE2;fontColor=#1A1A1A;fontStyle=0" vertex="1" parent="K5zt11yjpIeEXAA8S6xr-93">
          <mxGeometry x="30" width="220" height="30" as="geometry">
            <mxRectangle width="220" height="30" as="alternateBounds" />
          </mxGeometry>
        </mxCell>
        <mxCell id="K5zt11yjpIeEXAA8S6xr-96" value="" style="shape=partialRectangle;collapsible=0;dropTarget=0;pointerEvents=0;fillColor=none;points=[[0,0.5],[1,0.5]];portConstraint=eastwest;top=0;left=0;right=0;bottom=0;rounded=0;labelBackgroundColor=none;strokeColor=#D0CEE2;fontColor=#1A1A1A;" vertex="1" parent="C-vyLk0tnHw3VtMMgP7b-23">
          <mxGeometry y="390" width="250" height="30" as="geometry" />
        </mxCell>
        <mxCell id="K5zt11yjpIeEXAA8S6xr-97" value="" style="shape=partialRectangle;overflow=hidden;connectable=0;fillColor=none;top=0;left=0;bottom=0;right=0;rounded=0;labelBackgroundColor=none;strokeColor=#D0CEE2;fontColor=#1A1A1A;" vertex="1" parent="K5zt11yjpIeEXAA8S6xr-96">
          <mxGeometry width="30" height="30" as="geometry">
            <mxRectangle width="30" height="30" as="alternateBounds" />
          </mxGeometry>
        </mxCell>
        <mxCell id="K5zt11yjpIeEXAA8S6xr-98" value="cep: varchar(2)" style="shape=partialRectangle;overflow=hidden;connectable=0;fillColor=none;top=0;left=0;bottom=0;right=0;align=left;spacingLeft=6;rounded=0;labelBackgroundColor=none;strokeColor=#D0CEE2;fontColor=#1A1A1A;fontStyle=0" vertex="1" parent="K5zt11yjpIeEXAA8S6xr-96">
          <mxGeometry x="30" width="220" height="30" as="geometry">
            <mxRectangle width="220" height="30" as="alternateBounds" />
          </mxGeometry>
        </mxCell>
        <mxCell id="K5zt11yjpIeEXAA8S6xr-99" value="" style="shape=partialRectangle;collapsible=0;dropTarget=0;pointerEvents=0;fillColor=none;points=[[0,0.5],[1,0.5]];portConstraint=eastwest;top=0;left=0;right=0;bottom=0;rounded=0;labelBackgroundColor=none;strokeColor=#D0CEE2;fontColor=#1A1A1A;" vertex="1" parent="C-vyLk0tnHw3VtMMgP7b-23">
          <mxGeometry y="420" width="250" height="30" as="geometry" />
        </mxCell>
        <mxCell id="K5zt11yjpIeEXAA8S6xr-100" value="" style="shape=partialRectangle;overflow=hidden;connectable=0;fillColor=none;top=0;left=0;bottom=0;right=0;rounded=0;labelBackgroundColor=none;strokeColor=#D0CEE2;fontColor=#1A1A1A;" vertex="1" parent="K5zt11yjpIeEXAA8S6xr-99">
          <mxGeometry width="30" height="30" as="geometry">
            <mxRectangle width="30" height="30" as="alternateBounds" />
          </mxGeometry>
        </mxCell>
        <mxCell id="K5zt11yjpIeEXAA8S6xr-101" value="celular: varchar(2)" style="shape=partialRectangle;overflow=hidden;connectable=0;fillColor=none;top=0;left=0;bottom=0;right=0;align=left;spacingLeft=6;rounded=0;labelBackgroundColor=none;strokeColor=#D0CEE2;fontColor=#1A1A1A;fontStyle=0" vertex="1" parent="K5zt11yjpIeEXAA8S6xr-99">
          <mxGeometry x="30" width="220" height="30" as="geometry">
            <mxRectangle width="220" height="30" as="alternateBounds" />
          </mxGeometry>
        </mxCell>
        <mxCell id="C-vyLk0tnHw3VtMMgP7b-27" value="" style="shape=partialRectangle;collapsible=0;dropTarget=0;pointerEvents=0;fillColor=none;points=[[0,0.5],[1,0.5]];portConstraint=eastwest;top=0;left=0;right=0;bottom=0;rounded=0;labelBackgroundColor=none;strokeColor=#D0CEE2;fontColor=#1A1A1A;" parent="C-vyLk0tnHw3VtMMgP7b-23" vertex="1">
          <mxGeometry y="450" width="250" height="30" as="geometry" />
        </mxCell>
        <mxCell id="C-vyLk0tnHw3VtMMgP7b-28" value="" style="shape=partialRectangle;overflow=hidden;connectable=0;fillColor=none;top=0;left=0;bottom=0;right=0;rounded=0;labelBackgroundColor=none;strokeColor=#D0CEE2;fontColor=#1A1A1A;" parent="C-vyLk0tnHw3VtMMgP7b-27" vertex="1">
          <mxGeometry width="30" height="30" as="geometry">
            <mxRectangle width="30" height="30" as="alternateBounds" />
          </mxGeometry>
        </mxCell>
        <mxCell id="C-vyLk0tnHw3VtMMgP7b-29" value="telefone: varchar(2)" style="shape=partialRectangle;overflow=hidden;connectable=0;fillColor=none;top=0;left=0;bottom=0;right=0;align=left;spacingLeft=6;rounded=0;labelBackgroundColor=none;strokeColor=#D0CEE2;fontColor=#1A1A1A;fontStyle=0" parent="C-vyLk0tnHw3VtMMgP7b-27" vertex="1">
          <mxGeometry x="30" width="220" height="30" as="geometry">
            <mxRectangle width="220" height="30" as="alternateBounds" />
          </mxGeometry>
        </mxCell>
        <mxCell id="K5zt11yjpIeEXAA8S6xr-107" value="" style="shape=partialRectangle;overflow=hidden;connectable=0;fillColor=none;top=0;left=0;bottom=0;right=0;align=left;spacingLeft=6;rounded=0;labelBackgroundColor=none;strokeColor=#D0CEE2;fontColor=#1A1A1A;" vertex="1" parent="1">
          <mxGeometry x="498" y="211" width="220" height="30" as="geometry">
            <mxRectangle width="220" height="30" as="alternateBounds" />
          </mxGeometry>
        </mxCell>
        <mxCell id="K5zt11yjpIeEXAA8S6xr-108" value="" style="shape=partialRectangle;overflow=hidden;connectable=0;fillColor=none;top=0;left=0;bottom=0;right=0;align=left;spacingLeft=6;rounded=0;labelBackgroundColor=none;strokeColor=#D0CEE2;fontColor=#1A1A1A;" vertex="1" parent="1">
          <mxGeometry x="498" y="181" width="220" height="30" as="geometry">
            <mxRectangle width="220" height="30" as="alternateBounds" />
          </mxGeometry>
        </mxCell>
        <mxCell id="K5zt11yjpIeEXAA8S6xr-171" value="Servico" style="shape=table;startSize=30;container=1;collapsible=1;childLayout=tableLayout;fixedRows=1;rowLines=1;fontStyle=1;align=center;resizeLast=1;rounded=0;labelBackgroundColor=none;fillColor=#5D7F99;strokeColor=#000000;fontColor=#1A1A1A;strokeWidth=3;perimeterSpacing=0;shadow=1;fillStyle=auto;fontSize=15;" vertex="1" parent="1">
          <mxGeometry x="459" y="621" width="250" height="180" as="geometry" />
        </mxCell>
        <mxCell id="K5zt11yjpIeEXAA8S6xr-172" value="" style="shape=partialRectangle;collapsible=0;dropTarget=0;pointerEvents=0;fillColor=none;points=[[0,0.5],[1,0.5]];portConstraint=eastwest;top=0;left=0;right=0;bottom=1;rounded=0;labelBackgroundColor=none;strokeColor=#D0CEE2;fontColor=#1A1A1A;" vertex="1" parent="K5zt11yjpIeEXAA8S6xr-171">
          <mxGeometry y="30" width="250" height="30" as="geometry" />
        </mxCell>
        <mxCell id="K5zt11yjpIeEXAA8S6xr-173" value="PK" style="shape=partialRectangle;overflow=hidden;connectable=0;fillColor=#fff2cc;top=0;left=0;bottom=0;right=0;fontStyle=1;rounded=0;labelBackgroundColor=none;strokeColor=#d6b656;" vertex="1" parent="K5zt11yjpIeEXAA8S6xr-172">
          <mxGeometry width="30" height="30" as="geometry">
            <mxRectangle width="30" height="30" as="alternateBounds" />
          </mxGeometry>
        </mxCell>
        <mxCell id="K5zt11yjpIeEXAA8S6xr-174" value="id_servico: integer" style="shape=partialRectangle;overflow=hidden;connectable=0;fillColor=#fff2cc;top=0;left=0;bottom=0;right=0;align=left;spacingLeft=6;fontStyle=1;rounded=0;labelBackgroundColor=none;strokeColor=#d6b656;" vertex="1" parent="K5zt11yjpIeEXAA8S6xr-172">
          <mxGeometry x="30" width="220" height="30" as="geometry">
            <mxRectangle width="220" height="30" as="alternateBounds" />
          </mxGeometry>
        </mxCell>
        <mxCell id="K5zt11yjpIeEXAA8S6xr-175" value="" style="shape=partialRectangle;collapsible=0;dropTarget=0;pointerEvents=0;fillColor=none;points=[[0,0.5],[1,0.5]];portConstraint=eastwest;top=0;left=0;right=0;bottom=0;rounded=0;labelBackgroundColor=none;strokeColor=#D0CEE2;fontColor=#1A1A1A;" vertex="1" parent="K5zt11yjpIeEXAA8S6xr-171">
          <mxGeometry y="60" width="250" height="30" as="geometry" />
        </mxCell>
        <mxCell id="K5zt11yjpIeEXAA8S6xr-176" value="" style="shape=partialRectangle;overflow=hidden;connectable=0;fillColor=none;top=0;left=0;bottom=0;right=0;rounded=0;labelBackgroundColor=none;strokeColor=#D0CEE2;fontColor=#1A1A1A;" vertex="1" parent="K5zt11yjpIeEXAA8S6xr-175">
          <mxGeometry width="30" height="30" as="geometry">
            <mxRectangle width="30" height="30" as="alternateBounds" />
          </mxGeometry>
        </mxCell>
        <mxCell id="K5zt11yjpIeEXAA8S6xr-177" value="Descricao_servico: varchar(50)" style="shape=partialRectangle;overflow=hidden;connectable=0;fillColor=none;top=0;left=0;bottom=0;right=0;align=left;spacingLeft=6;rounded=0;labelBackgroundColor=none;strokeColor=#D0CEE2;fontColor=#1A1A1A;" vertex="1" parent="K5zt11yjpIeEXAA8S6xr-175">
          <mxGeometry x="30" width="220" height="30" as="geometry">
            <mxRectangle width="220" height="30" as="alternateBounds" />
          </mxGeometry>
        </mxCell>
        <mxCell id="K5zt11yjpIeEXAA8S6xr-178" value="" style="shape=partialRectangle;collapsible=0;dropTarget=0;pointerEvents=0;fillColor=none;points=[[0,0.5],[1,0.5]];portConstraint=eastwest;top=0;left=0;right=0;bottom=0;rounded=0;labelBackgroundColor=none;strokeColor=#D0CEE2;fontColor=#1A1A1A;" vertex="1" parent="K5zt11yjpIeEXAA8S6xr-171">
          <mxGeometry y="90" width="250" height="30" as="geometry" />
        </mxCell>
        <mxCell id="K5zt11yjpIeEXAA8S6xr-179" value="" style="shape=partialRectangle;overflow=hidden;connectable=0;fillColor=none;top=0;left=0;bottom=0;right=0;rounded=0;labelBackgroundColor=none;strokeColor=#D0CEE2;fontColor=#1A1A1A;" vertex="1" parent="K5zt11yjpIeEXAA8S6xr-178">
          <mxGeometry width="30" height="30" as="geometry">
            <mxRectangle width="30" height="30" as="alternateBounds" />
          </mxGeometry>
        </mxCell>
        <mxCell id="K5zt11yjpIeEXAA8S6xr-180" value="valor: decimal(15,2)" style="shape=partialRectangle;overflow=hidden;connectable=0;fillColor=none;top=0;left=0;bottom=0;right=0;align=left;spacingLeft=6;rounded=0;labelBackgroundColor=none;strokeColor=#D0CEE2;fontColor=#1A1A1A;" vertex="1" parent="K5zt11yjpIeEXAA8S6xr-178">
          <mxGeometry x="30" width="220" height="30" as="geometry">
            <mxRectangle width="220" height="30" as="alternateBounds" />
          </mxGeometry>
        </mxCell>
        <mxCell id="K5zt11yjpIeEXAA8S6xr-181" value="" style="shape=partialRectangle;collapsible=0;dropTarget=0;pointerEvents=0;fillColor=none;points=[[0,0.5],[1,0.5]];portConstraint=eastwest;top=0;left=0;right=0;bottom=0;rounded=0;labelBackgroundColor=none;strokeColor=#D0CEE2;fontColor=#1A1A1A;" vertex="1" parent="K5zt11yjpIeEXAA8S6xr-171">
          <mxGeometry y="120" width="250" height="30" as="geometry" />
        </mxCell>
        <mxCell id="K5zt11yjpIeEXAA8S6xr-182" value="" style="shape=partialRectangle;overflow=hidden;connectable=0;fillColor=none;top=0;left=0;bottom=0;right=0;rounded=0;labelBackgroundColor=none;strokeColor=#D0CEE2;fontColor=#1A1A1A;" vertex="1" parent="K5zt11yjpIeEXAA8S6xr-181">
          <mxGeometry width="30" height="30" as="geometry">
            <mxRectangle width="30" height="30" as="alternateBounds" />
          </mxGeometry>
        </mxCell>
        <mxCell id="K5zt11yjpIeEXAA8S6xr-183" value="observacao: varchar(200)" style="shape=partialRectangle;overflow=hidden;connectable=0;fillColor=none;top=0;left=0;bottom=0;right=0;align=left;spacingLeft=6;rounded=0;labelBackgroundColor=none;strokeColor=#D0CEE2;fontColor=#1A1A1A;" vertex="1" parent="K5zt11yjpIeEXAA8S6xr-181">
          <mxGeometry x="30" width="220" height="30" as="geometry">
            <mxRectangle width="220" height="30" as="alternateBounds" />
          </mxGeometry>
        </mxCell>
        <mxCell id="K5zt11yjpIeEXAA8S6xr-277" value="" style="shape=partialRectangle;collapsible=0;dropTarget=0;pointerEvents=0;fillColor=none;points=[[0,0.5],[1,0.5]];portConstraint=eastwest;top=0;left=0;right=0;bottom=0;rounded=0;labelBackgroundColor=none;strokeColor=#D0CEE2;fontColor=#1A1A1A;" vertex="1" parent="K5zt11yjpIeEXAA8S6xr-171">
          <mxGeometry y="150" width="250" height="30" as="geometry" />
        </mxCell>
        <mxCell id="K5zt11yjpIeEXAA8S6xr-278" value="FK" style="shape=partialRectangle;overflow=hidden;connectable=0;fillColor=#f8cecc;top=0;left=0;bottom=0;right=0;rounded=0;labelBackgroundColor=none;strokeColor=#b85450;fontStyle=1" vertex="1" parent="K5zt11yjpIeEXAA8S6xr-277">
          <mxGeometry width="30" height="30" as="geometry">
            <mxRectangle width="30" height="30" as="alternateBounds" />
          </mxGeometry>
        </mxCell>
        <mxCell id="K5zt11yjpIeEXAA8S6xr-279" value="id_peca: integer" style="shape=partialRectangle;overflow=hidden;connectable=0;fillColor=#f8cecc;top=0;left=0;bottom=0;right=0;align=left;spacingLeft=6;rounded=0;labelBackgroundColor=none;strokeColor=#b85450;fontStyle=1" vertex="1" parent="K5zt11yjpIeEXAA8S6xr-277">
          <mxGeometry x="30" width="220" height="30" as="geometry">
            <mxRectangle width="220" height="30" as="alternateBounds" />
          </mxGeometry>
        </mxCell>
        <mxCell id="K5zt11yjpIeEXAA8S6xr-203" value="Peca" style="shape=table;startSize=30;container=1;collapsible=1;childLayout=tableLayout;fixedRows=1;rowLines=1;fontStyle=1;align=center;resizeLast=1;rounded=0;labelBackgroundColor=none;fillColor=#5D7F99;strokeColor=#000000;fontColor=#1A1A1A;strokeWidth=3;perimeterSpacing=0;shadow=1;fillStyle=auto;fontSize=15;" vertex="1" parent="1">
          <mxGeometry x="882" y="621" width="250" height="180" as="geometry" />
        </mxCell>
        <mxCell id="K5zt11yjpIeEXAA8S6xr-204" value="" style="shape=partialRectangle;collapsible=0;dropTarget=0;pointerEvents=0;fillColor=none;points=[[0,0.5],[1,0.5]];portConstraint=eastwest;top=0;left=0;right=0;bottom=1;rounded=0;labelBackgroundColor=none;strokeColor=#D0CEE2;fontColor=#1A1A1A;" vertex="1" parent="K5zt11yjpIeEXAA8S6xr-203">
          <mxGeometry y="30" width="250" height="30" as="geometry" />
        </mxCell>
        <mxCell id="K5zt11yjpIeEXAA8S6xr-205" value="PK" style="shape=partialRectangle;overflow=hidden;connectable=0;fillColor=#fff2cc;top=0;left=0;bottom=0;right=0;fontStyle=1;rounded=0;labelBackgroundColor=none;strokeColor=#d6b656;" vertex="1" parent="K5zt11yjpIeEXAA8S6xr-204">
          <mxGeometry width="30" height="30" as="geometry">
            <mxRectangle width="30" height="30" as="alternateBounds" />
          </mxGeometry>
        </mxCell>
        <mxCell id="K5zt11yjpIeEXAA8S6xr-206" value="id_peca: integer" style="shape=partialRectangle;overflow=hidden;connectable=0;fillColor=#fff2cc;top=0;left=0;bottom=0;right=0;align=left;spacingLeft=6;fontStyle=1;rounded=0;labelBackgroundColor=none;strokeColor=#d6b656;" vertex="1" parent="K5zt11yjpIeEXAA8S6xr-204">
          <mxGeometry x="30" width="220" height="30" as="geometry">
            <mxRectangle width="220" height="30" as="alternateBounds" />
          </mxGeometry>
        </mxCell>
        <mxCell id="K5zt11yjpIeEXAA8S6xr-207" value="" style="shape=partialRectangle;collapsible=0;dropTarget=0;pointerEvents=0;fillColor=none;points=[[0,0.5],[1,0.5]];portConstraint=eastwest;top=0;left=0;right=0;bottom=0;rounded=0;labelBackgroundColor=none;strokeColor=#D0CEE2;fontColor=#1A1A1A;" vertex="1" parent="K5zt11yjpIeEXAA8S6xr-203">
          <mxGeometry y="60" width="250" height="30" as="geometry" />
        </mxCell>
        <mxCell id="K5zt11yjpIeEXAA8S6xr-208" value="" style="shape=partialRectangle;overflow=hidden;connectable=0;fillColor=none;top=0;left=0;bottom=0;right=0;rounded=0;labelBackgroundColor=none;strokeColor=#D0CEE2;fontColor=#1A1A1A;" vertex="1" parent="K5zt11yjpIeEXAA8S6xr-207">
          <mxGeometry width="30" height="30" as="geometry">
            <mxRectangle width="30" height="30" as="alternateBounds" />
          </mxGeometry>
        </mxCell>
        <mxCell id="K5zt11yjpIeEXAA8S6xr-209" value="marca: varchar(20)" style="shape=partialRectangle;overflow=hidden;connectable=0;fillColor=none;top=0;left=0;bottom=0;right=0;align=left;spacingLeft=6;rounded=0;labelBackgroundColor=none;strokeColor=#D0CEE2;fontColor=#1A1A1A;" vertex="1" parent="K5zt11yjpIeEXAA8S6xr-207">
          <mxGeometry x="30" width="220" height="30" as="geometry">
            <mxRectangle width="220" height="30" as="alternateBounds" />
          </mxGeometry>
        </mxCell>
        <mxCell id="K5zt11yjpIeEXAA8S6xr-210" value="" style="shape=partialRectangle;collapsible=0;dropTarget=0;pointerEvents=0;fillColor=none;points=[[0,0.5],[1,0.5]];portConstraint=eastwest;top=0;left=0;right=0;bottom=0;rounded=0;labelBackgroundColor=none;strokeColor=#D0CEE2;fontColor=#1A1A1A;" vertex="1" parent="K5zt11yjpIeEXAA8S6xr-203">
          <mxGeometry y="90" width="250" height="30" as="geometry" />
        </mxCell>
        <mxCell id="K5zt11yjpIeEXAA8S6xr-211" value="" style="shape=partialRectangle;overflow=hidden;connectable=0;fillColor=none;top=0;left=0;bottom=0;right=0;rounded=0;labelBackgroundColor=none;strokeColor=#D0CEE2;fontColor=#1A1A1A;" vertex="1" parent="K5zt11yjpIeEXAA8S6xr-210">
          <mxGeometry width="30" height="30" as="geometry">
            <mxRectangle width="30" height="30" as="alternateBounds" />
          </mxGeometry>
        </mxCell>
        <mxCell id="K5zt11yjpIeEXAA8S6xr-212" value="descricao_peca: varchar(50)" style="shape=partialRectangle;overflow=hidden;connectable=0;fillColor=none;top=0;left=0;bottom=0;right=0;align=left;spacingLeft=6;rounded=0;labelBackgroundColor=none;strokeColor=#D0CEE2;fontColor=#1A1A1A;" vertex="1" parent="K5zt11yjpIeEXAA8S6xr-210">
          <mxGeometry x="30" width="220" height="30" as="geometry">
            <mxRectangle width="220" height="30" as="alternateBounds" />
          </mxGeometry>
        </mxCell>
        <mxCell id="K5zt11yjpIeEXAA8S6xr-213" value="" style="shape=partialRectangle;collapsible=0;dropTarget=0;pointerEvents=0;fillColor=none;points=[[0,0.5],[1,0.5]];portConstraint=eastwest;top=0;left=0;right=0;bottom=0;rounded=0;labelBackgroundColor=none;strokeColor=#D0CEE2;fontColor=#1A1A1A;" vertex="1" parent="K5zt11yjpIeEXAA8S6xr-203">
          <mxGeometry y="120" width="250" height="30" as="geometry" />
        </mxCell>
        <mxCell id="K5zt11yjpIeEXAA8S6xr-214" value="" style="shape=partialRectangle;overflow=hidden;connectable=0;fillColor=none;top=0;left=0;bottom=0;right=0;rounded=0;labelBackgroundColor=none;strokeColor=#D0CEE2;fontColor=#1A1A1A;" vertex="1" parent="K5zt11yjpIeEXAA8S6xr-213">
          <mxGeometry width="30" height="30" as="geometry">
            <mxRectangle width="30" height="30" as="alternateBounds" />
          </mxGeometry>
        </mxCell>
        <mxCell id="K5zt11yjpIeEXAA8S6xr-215" value="qtd_estoque: integer" style="shape=partialRectangle;overflow=hidden;connectable=0;fillColor=none;top=0;left=0;bottom=0;right=0;align=left;spacingLeft=6;rounded=0;labelBackgroundColor=none;strokeColor=#D0CEE2;fontColor=#1A1A1A;" vertex="1" parent="K5zt11yjpIeEXAA8S6xr-213">
          <mxGeometry x="30" width="220" height="30" as="geometry">
            <mxRectangle width="220" height="30" as="alternateBounds" />
          </mxGeometry>
        </mxCell>
        <mxCell id="K5zt11yjpIeEXAA8S6xr-218" value="" style="shape=partialRectangle;collapsible=0;dropTarget=0;pointerEvents=0;fillColor=none;points=[[0,0.5],[1,0.5]];portConstraint=eastwest;top=0;left=0;right=0;bottom=0;rounded=0;labelBackgroundColor=none;strokeColor=#D0CEE2;fontColor=#1A1A1A;" vertex="1" parent="K5zt11yjpIeEXAA8S6xr-203">
          <mxGeometry y="150" width="250" height="30" as="geometry" />
        </mxCell>
        <mxCell id="K5zt11yjpIeEXAA8S6xr-219" value="" style="shape=partialRectangle;overflow=hidden;connectable=0;fillColor=none;top=0;left=0;bottom=0;right=0;rounded=0;labelBackgroundColor=none;strokeColor=#D0CEE2;fontColor=#1A1A1A;" vertex="1" parent="K5zt11yjpIeEXAA8S6xr-218">
          <mxGeometry width="30" height="30" as="geometry">
            <mxRectangle width="30" height="30" as="alternateBounds" />
          </mxGeometry>
        </mxCell>
        <mxCell id="K5zt11yjpIeEXAA8S6xr-220" value="valor : decimal(15,2)" style="shape=partialRectangle;overflow=hidden;connectable=0;fillColor=none;top=0;left=0;bottom=0;right=0;align=left;spacingLeft=6;rounded=0;labelBackgroundColor=none;strokeColor=#D0CEE2;fontColor=#1A1A1A;" vertex="1" parent="K5zt11yjpIeEXAA8S6xr-218">
          <mxGeometry x="30" width="220" height="30" as="geometry">
            <mxRectangle width="220" height="30" as="alternateBounds" />
          </mxGeometry>
        </mxCell>
        <mxCell id="K5zt11yjpIeEXAA8S6xr-237" style="rounded=0;orthogonalLoop=1;jettySize=auto;html=1;exitX=1;exitY=0.5;exitDx=0;exitDy=0;entryX=0.031;entryY=0.167;entryDx=0;entryDy=0;entryPerimeter=0;strokeColor=#736CA8;fontColor=#1A1A1A;edgeStyle=orthogonalEdgeStyle;endArrow=none;endFill=0;strokeWidth=3;dashed=1;" edge="1" parent="1" source="K5zt11yjpIeEXAA8S6xr-78" target="K5zt11yjpIeEXAA8S6xr-112">
          <mxGeometry relative="1" as="geometry" />
        </mxCell>
        <mxCell id="K5zt11yjpIeEXAA8S6xr-239" value="&lt;font style=&quot;font-size: 18px;&quot;&gt;(1,1)&lt;/font&gt;" style="edgeLabel;html=1;align=center;verticalAlign=middle;resizable=0;points=[];strokeColor=#D0CEE2;fontColor=#1A1A1A;fillColor=#5D7F99;" vertex="1" connectable="0" parent="K5zt11yjpIeEXAA8S6xr-237">
          <mxGeometry x="-0.8006" relative="1" as="geometry">
            <mxPoint x="13" y="-15" as="offset" />
          </mxGeometry>
        </mxCell>
        <mxCell id="K5zt11yjpIeEXAA8S6xr-255" value="&lt;font style=&quot;font-size: 18px;&quot;&gt;(1,n)&lt;/font&gt;" style="edgeLabel;html=1;align=center;verticalAlign=middle;resizable=0;points=[];strokeColor=#D0CEE2;fontColor=#1A1A1A;fillColor=#5D7F99;" vertex="1" connectable="0" parent="1">
          <mxGeometry x="441.0028571428576" y="324" as="geometry">
            <mxPoint x="-6" y="-44" as="offset" />
          </mxGeometry>
        </mxCell>
        <mxCell id="K5zt11yjpIeEXAA8S6xr-258" value="&lt;font style=&quot;font-size: 18px;&quot;&gt;(1,n)&lt;/font&gt;" style="edgeLabel;html=1;align=center;verticalAlign=middle;resizable=0;points=[];strokeColor=#D0CEE2;fontColor=#1A1A1A;fillColor=#5D7F99;" vertex="1" connectable="0" parent="1">
          <mxGeometry x="243.00285714285758" y="260.9999999999999" as="geometry">
            <mxPoint x="346" y="346" as="offset" />
          </mxGeometry>
        </mxCell>
        <mxCell id="K5zt11yjpIeEXAA8S6xr-259" value="&lt;font style=&quot;font-size: 18px;&quot;&gt;(1,1)&lt;/font&gt;" style="edgeLabel;html=1;align=center;verticalAlign=middle;resizable=0;points=[];strokeColor=#D0CEE2;fontColor=#1A1A1A;fillColor=#5D7F99;" vertex="1" connectable="0" parent="1">
          <mxGeometry x="243" y="291" as="geometry">
            <mxPoint x="345" y="205" as="offset" />
          </mxGeometry>
        </mxCell>
        <mxCell id="K5zt11yjpIeEXAA8S6xr-286" style="rounded=0;orthogonalLoop=1;jettySize=auto;html=1;entryX=0.418;entryY=1.027;entryDx=0;entryDy=0;entryPerimeter=0;strokeColor=#736CA8;fontColor=#1A1A1A;edgeStyle=orthogonalEdgeStyle;endArrow=none;endFill=0;strokeWidth=3;dashed=1;exitX=0.421;exitY=-0.013;exitDx=0;exitDy=0;exitPerimeter=0;" edge="1" parent="1" source="K5zt11yjpIeEXAA8S6xr-171" target="K5zt11yjpIeEXAA8S6xr-221">
          <mxGeometry relative="1" as="geometry">
            <mxPoint x="498" y="535" as="sourcePoint" />
            <mxPoint x="652" y="531" as="targetPoint" />
          </mxGeometry>
        </mxCell>
        <mxCell id="K5zt11yjpIeEXAA8S6xr-288" style="rounded=0;orthogonalLoop=1;jettySize=auto;html=1;strokeColor=#736CA8;fontColor=#1A1A1A;edgeStyle=orthogonalEdgeStyle;endArrow=none;endFill=0;strokeWidth=3;dashed=1;exitX=1;exitY=0.5;exitDx=0;exitDy=0;entryX=0;entryY=0.5;entryDx=0;entryDy=0;" edge="1" parent="1" source="K5zt11yjpIeEXAA8S6xr-178" target="K5zt11yjpIeEXAA8S6xr-210">
          <mxGeometry relative="1" as="geometry">
            <mxPoint x="801" y="781.5" as="sourcePoint" />
            <mxPoint x="864" y="729" as="targetPoint" />
          </mxGeometry>
        </mxCell>
        <mxCell id="K5zt11yjpIeEXAA8S6xr-290" value="&lt;span style=&quot;color: rgb(26, 26, 26); font-family: Helvetica; font-size: 18px; font-style: normal; font-variant-ligatures: normal; font-variant-caps: normal; font-weight: 400; letter-spacing: normal; orphans: 2; text-align: center; text-indent: 0px; text-transform: none; widows: 2; word-spacing: 0px; -webkit-text-stroke-width: 0px; white-space: nowrap; background-color: rgb(255, 255, 255); text-decoration-thickness: initial; text-decoration-style: initial; text-decoration-color: initial; display: inline !important; float: none;&quot;&gt;(1,0)&lt;/span&gt;" style="text;whiteSpace=wrap;html=1;fontColor=#1A1A1A;" vertex="1" parent="1">
          <mxGeometry x="709" y="693" width="45" height="36" as="geometry" />
        </mxCell>
        <mxCell id="K5zt11yjpIeEXAA8S6xr-291" value="&lt;span style=&quot;color: rgb(26, 26, 26); font-family: Helvetica; font-size: 18px; font-style: normal; font-variant-ligatures: normal; font-variant-caps: normal; font-weight: 400; letter-spacing: normal; orphans: 2; text-align: center; text-indent: 0px; text-transform: none; widows: 2; word-spacing: 0px; -webkit-text-stroke-width: 0px; white-space: nowrap; background-color: rgb(255, 255, 255); text-decoration-thickness: initial; text-decoration-style: initial; text-decoration-color: initial; display: inline !important; float: none;&quot;&gt;(1,0)&lt;/span&gt;" style="text;whiteSpace=wrap;html=1;fontColor=#1A1A1A;" vertex="1" parent="1">
          <mxGeometry x="840" y="693" width="36" height="27" as="geometry" />
        </mxCell>
      </root>
    </mxGraphModel>
  </diagram>
</mxfile>
